<?xml version="1.0" encoding="UTF-8"?>
<svg id="Layer_1" data-name="Layer 1" xmlns="http://www.w3.org/2000/svg" viewBox="0 0 3012.08 935.54">
  <defs>
    <style>
      .cls-1 {
        fill: #fff;
        stroke-width: 0px;
      }
    </style>
  </defs>
  <polygon class="cls-1" points="0 911.69 0 300.84 99.06 201.78 260.48 75.21 346.7 25.68 508.13 111.9 667.72 220.13 752.1 302.68 763.11 897.02 0 911.69"/>
  <polygon class="cls-1" points="2234.29 900.69 3012.08 911.69 3012.08 271.49 2968.05 181.61 2878.17 82.55 2764.43 16.51 2652.54 0 2514.96 12.84 2443.41 44.03 2340.69 108.23 2291.16 172.43 2252.64 234.8 2234.29 286.17 2234.29 900.69"/>
  <polygon class="cls-1" points="1262.06 911.69 1718.83 935.54 1739.01 898.85 1739.01 858.5 1739.01 818.14 1262.06 790.62 1232.71 832.82 1262.06 911.69"/>
  <polygon class="cls-1" points="1256.56 636.54 1485.86 620.03 1720.2 616.82 1759.18 668.18 1729.38 741.55 1263.9 747.52 1256.56 636.54"/>
</svg>