<?xml version="1.0" encoding="UTF-8"?>
<svg id="Layer_1" data-name="Layer 1" xmlns="http://www.w3.org/2000/svg" xmlns:xlink="http://www.w3.org/1999/xlink" viewBox="0 0 4000 2250">
  <defs>
    <style>
      .cls-1 {
        fill: #fff;
        stroke: #000;
        stroke-miterlimit: 10;
      }
    </style>
  </defs>
   <polygon class="cls-1" points="497.12 1458.81 1260.69 1446.43 1246.93 852.08 1125.86 740.64 1017.17 664.97 887.85 598.94 845.2 575.55 770.9 615.45 630.57 720.01 543.9 803.93 497.12 850.71 497.12 1458.81"/>
  <polygon class="cls-1" points="2732.79 1449.18 3504.61 1461.56 3504.61 813.56 3479.16 746.15 3410.37 659.47 3286.55 583.11 3180.61 555.6 3077.43 555.6 2992.13 575.55 2906.83 615.45 2834.6 668.41 2787.82 719.32 2746.55 794.99 2732.79 850.02 2732.79 1449.18"/>
  <polygon class="cls-1" points="1760.1 1296.46 2227.87 1290.96 2255.39 1219.42 2215.49 1167.14 1753.22 1185.03 1746.34 1231.8 1760.1 1296.46"/>
  <polygon class="cls-1" points="1765.61 1341.87 2069.66 1355.62 2226.5 1370.76 2232 1438.17 2220.99 1487.7 1758.73 1461.56 1731.21 1391.39 1765.61 1341.87"/>
</svg>