<?xml version="1.0" encoding="UTF-8"?>
<svg xmlns="http://www.w3.org/2000/svg" viewBox="0 0 4000 2250">
  <defs>
    <style>
      .cls-1 {
        fill: #fff;
        stroke: #000;
        stroke-miterlimit: 10;
      }
    </style>
  </defs>
  <g id="Layer_2" data-name="Layer 2">
    <path class="cls-1" d="m510.88,787.88c425.58-311.85,385.22-212.79,385.22-212.79l278.83,157.76,95.39,117.4v601.68l-788.79,22.01,29.35-686.06Z"/>
    <polygon class="cls-1" points="1771.11 1158.89 2240.25 1169.89 2229.25 1295.09 1757.35 1284.08 1731.21 1211.17 1771.11 1158.89"/>
  </g>
  <g id="Layer_3" data-name="Layer 3">
    <polygon class="cls-1" points="1750.47 963.52 2219.62 970.4 2254.01 1017.04 2229.25 1096.97 1758.73 1081.84 1750.47 963.52"/>
    <polygon class="cls-1" points="2735.54 1449.18 3507.36 1464.31 3507.36 812.18 3460.59 715.88 3336.76 605.82 3159.29 549.41 3053.35 560.41 2943.29 593.43 2855.24 641.59 2771.31 736.52 2735.54 814.94 2735.54 1449.18"/>
  </g>
</svg>