<?xml version="1.0" encoding="UTF-8"?>
<svg id="Layer_1" data-name="Layer 1" xmlns="http://www.w3.org/2000/svg" viewBox="0 0 3005.66 934.17">
  <defs>
    <style>
      .cls-1 {
        fill: #fff;
        stroke-width: 0px;
      }
    </style>
  </defs>
  <polygon class="cls-1" points="0 904.2 762.8 891.97 752.1 300.84 701.2 249.02 620.03 182.52 548.48 129.78 477.86 88.05 405.86 50.45 376.51 35.31 361.38 28.43 354.5 22.93 350.11 20.32 347.62 20.61 344.75 23.33 287.39 56.71 237.25 90.65 200.25 117.55 153.78 151.8 95.16 204.31 49.76 247.64 16.05 284.1 3.67 295.11 0 904.2"/>
  <polygon class="cls-1" points="1270.78 784.89 1735.11 817.22 1742.68 864 1742.68 890.83 1729.61 934.17 1263.21 908.71 1235.01 834.42 1270.78 784.89"/>
  <polygon class="cls-1" points="1258.39 631.49 1720.66 613.61 1760.56 665.89 1732.36 739.49 1265.27 745.68 1252.2 686.52 1252.2 673.45 1258.39 631.49"/>
  <polygon class="cls-1" points="2236.59 892.89 3005.66 910.78 3005.66 253.15 2969.89 166.47 2901.1 100.43 2829.55 48.15 2747.01 16.51 2635.57 0 2572.28 0 2481.48 30.27 2387.92 74.29 2324.64 133.45 2265.48 203.62 2236.59 266.9 2236.59 892.89"/>
</svg>